<?xml version="1.0" encoding="UTF-8" standalone="no"?>
<!-- Created with Inkscape (http://www.inkscape.org/) -->

<svg
   xmlns:dc="http://purl.org/dc/elements/1.1/"
   xmlns:cc="http://creativecommons.org/ns#"
   xmlns:rdf="http://www.w3.org/1999/02/22-rdf-syntax-ns#"
   xmlns:svg="http://www.w3.org/2000/svg"
   xmlns="http://www.w3.org/2000/svg"
   xmlns:sodipodi="http://sodipodi.sourceforge.net/DTD/sodipodi-0.dtd"
   xmlns:inkscape="http://www.inkscape.org/namespaces/inkscape"
   width="1000"
   height="210.14067"
   id="svg3117"
   version="1.1"
   inkscape:version="0.48.2 r9819"
   sodipodi:docname="New document 4">
  <defs
     id="defs3119" />
  <sodipodi:namedview
     id="base"
     pagecolor="#ffffff"
     bordercolor="#666666"
     borderopacity="1.0"
     inkscape:pageopacity="0.0"
     inkscape:pageshadow="2"
     inkscape:zoom="0.58105469"
     inkscape:cx="523.88135"
     inkscape:cy="-64.71687"
     inkscape:document-units="px"
     inkscape:current-layer="layer1"
     showgrid="false"
     fit-margin-left="0.5"
     fit-margin-bottom="0.5"
     fit-margin-top="0.5"
     fit-margin-right="0.5"
     inkscape:window-width="1062"
     inkscape:window-height="1049"
     inkscape:window-x="857"
     inkscape:window-y="-21"
     inkscape:window-maximized="0" />
  <metadata
     id="metadata3122">
    <rdf:RDF>
      <cc:Work
         rdf:about="">
        <dc:format>image/svg+xml</dc:format>
        <dc:type
           rdf:resource="http://purl.org/dc/dcmitype/StillImage" />
        <dc:title></dc:title>
      </cc:Work>
    </rdf:RDF>
  </metadata>
  <g
     inkscape:label="Layer 1"
     inkscape:groupmode="layer"
     id="layer1"
     transform="translate(310.68908,-221.88681)">
    <g
       id="g3039"
       transform="matrix(10.524919,0,0,-10.524919,-143.41121,392.03798)">
      <path
         d="m 0,0 c 0.015,0.002 0.036,0.007 0.05,0.009 l -1.39,-3.761 -0.074,0 -5.365,0 -0.075,0 1.342,3.221 0.046,0 0.003,0 c 0.373,0 2.891,0.022 5.467,0.54 L 0,0 z m 75.049,9.129 c 0,-4.252 -3.361,-6.988 -8.897,-6.988 l -3.33,0 0,-5.893 -15.041,0 -6.072,8.003 0,-8.003 -14.51,0 -1.594,4.392 c -0.103,0.02 -1.722,0.324 -3.637,0.324 -1.906,0 -3.598,-0.298 -3.691,-0.315 l -1.636,-4.401 -7.398,0 -1.207,3.342 c 1.812,-0.451 3.201,-1.193 3.894,-1.605 l 0.308,0.757 c -1.118,0.663 -4.24,2.243 -8.718,2.243 -3.466,0 -5.67,-0.846 -9.272,-0.846 -5.849,0 -9.884,2.85 -10.094,2.99 l 1.554,3.799 c 0.403,-0.263 4.292,-2.775 8.773,-2.775 0.76,0 1.412,0.041 2.019,0.101 l 4.857,11.865 0.696,0 3.968,0 3.41,0 4.807,-12.461 5.088,12.461 8.085,0 7.073,-18.339 0,18.339 9.667,0 c 6.572,0 9.792,-3.016 9.792,-6.99 0,-3.977 -3.13,-5.513 -3.999,-5.907 l 5.661,-6.158 0,19.055 10.547,0 c 5.833,0 8.897,-2.953 8.897,-6.99 M 6.232,4.587 4.014,10.707 1.841,4.846 c 0.368,0.015 0.761,0.022 1.185,0.022 1.763,0 3.065,-0.253 3.206,-0.281 m 17.95,0.125 -2.214,5.918 -2.252,-5.918 c 0.104,0.015 1.316,0.155 2.252,0.155 1.001,0 2.106,-0.138 2.214,-0.155 m 22.336,4.417 c 0,1.971 -0.995,3.715 -3.747,3.715 l -1.062,0 0,-7.416 1.062,0 c 2.478,0 3.747,1.406 3.747,3.701 m 21.106,0 c 0,2.162 -1.147,3.715 -3.337,3.715 l -1.465,0 0,-7.416 1.465,0 c 2.055,0 3.337,1.39 3.337,3.701"
         style="fill:#ee2722;fill-opacity:1;fill-rule:nonzero;stroke:none"
         id="path3041"
         inkscape:connector-curvature="0" />
    </g>
    <g
       id="g3043"
       transform="matrix(10.524919,0,0,-10.524919,668.01369,222.39209)">
      <path
         d="m 0,0 c 1.099,0 1.976,-0.894 1.976,-2.013 0,-1.137 -0.877,-2.021 -1.985,-2.021 -1.1,0 -1.996,0.884 -1.996,2.021 0,1.119 0.896,2.013 1.996,2.013 L 0,0 z m -0.009,-0.314 c -0.886,0 -1.612,-0.759 -1.612,-1.699 0,-0.957 0.726,-1.709 1.621,-1.709 0.893,-0.009 1.609,0.752 1.609,1.7 0,0.949 -0.716,1.708 -1.609,1.708 l -0.009,0 z m -0.377,-2.87 -0.357,0 0,2.245 c 0.188,0.027 0.366,0.053 0.634,0.053 0.34,0 0.564,-0.071 0.699,-0.17 0.134,-0.098 0.206,-0.25 0.206,-0.465 0,-0.295 -0.198,-0.474 -0.439,-0.546 l 0,-0.018 c 0.197,-0.035 0.33,-0.213 0.375,-0.546 0.055,-0.348 0.107,-0.483 0.143,-0.553 l -0.376,0 c -0.052,0.07 -0.106,0.276 -0.151,0.572 -0.053,0.287 -0.198,0.393 -0.483,0.393 l -0.251,0 0,-0.965 z m 0,1.243 0.26,0 c 0.295,0 0.545,0.108 0.545,0.384 0,0.197 -0.144,0.394 -0.545,0.394 -0.117,0 -0.197,-0.009 -0.26,-0.018 l 0,-0.76 z"
         style="fill:#ee2722;fill-opacity:1;fill-rule:nonzero;stroke:none"
         id="path3045"
         inkscape:connector-curvature="0" />
    </g>
  </g>
</svg>
