<?xml version="1.0" encoding="UTF-8"?> <!-- Generator: Adobe Illustrator 24.1.0, SVG Export Plug-In . SVG Version: 6.00 Build 0) --> <svg xmlns="http://www.w3.org/2000/svg" xmlns:xlink="http://www.w3.org/1999/xlink" version="1.1" id="Layer_1" x="0px" y="0px" viewBox="0 0 151.3 141" style="enable-background:new 0 0 151.3 141;" xml:space="preserve"> <style type="text/css"> .st0{fill:#28628F;} </style> <polygon class="st0" points="75.4,2.7 2.3,27.3 2.3,39.6 75.4,15 148.5,39.6 148.5,27.3 "></polygon> <path class="st0" d="M84.3,55.3c-2,0-3.7,1.6-3.7,3.7v41.5H88V58.9C88,56.9,86.3,55.3,84.3,55.3z"></path> <path class="st0" d="M97.8,58.9c-2,0-3.7,1.6-3.7,3.7v37.8h7.4V62.6C101.5,60.6,99.8,58.9,97.8,58.9z"></path> <path class="st0" d="M111.3,62.6c-2,0-3.7,1.6-3.7,3.7v34.1h7.4V66.3C115,64.3,113.3,62.6,111.3,62.6z"></path> <path class="st0" d="M124.8,66.3c-2,0-3.7,1.6-3.7,3.7v30.4h7.4V70C128.5,68,126.8,66.3,124.8,66.3z"></path> <path class="st0" d="M23,59.4l-6.1,2.1v38.8h5.3V70c0-2,1.7-3.7,3.7-3.7c2,0,3.7,1.6,3.7,3.7v30.4h6.1V66.3c0-2,1.6-3.7,3.7-3.7 c2,0,3.7,1.6,3.7,3.7v34.1h6.1V62.6c0-2,1.7-3.7,3.7-3.7c2,0,3.7,1.6,3.7,3.7v37.8h6.1V58.9c0-2,1.6-3.7,3.7-3.7s3.7,1.6,3.7,3.7 v41.5h5.2V41.9L23,59.4L23,59.4z"></path> <polygon class="st0" points="9.7,44.4 9.7,44.4 9.5,44.4 9.5,56.6 11.6,55.9 75.4,34.5 141.1,56.6 141.1,44.4 75.4,22.3 "></polygon> <g> <g> <path class="st0" d="M25.6,125.8c-1.3,0-1.4,0.1-1.9,1.3l-1.3,3.5c-0.6,1.7-0.4,2,0.6,2.2l1.5,0.3c0.4,0.3,0.4,1.3-0.2,1.4 c-1.4-0.1-2.8-0.2-4.3-0.2c-1.5,0-2.8,0.1-3.8,0.2c-0.5-0.2-0.5-1.1-0.1-1.4l1.3-0.3c1.7-0.4,2.3-1,3.4-3.6l5.2-12.5 c0.9-2.2,1.3-3.5,1.4-4.6c1-0.4,2-1.4,2.3-2.1c0.4-0.2,0.8-0.1,0.9,0.3c0.2,0.5,1.1,3.4,2.3,6.7l4.9,13c0.7,1.8,1.1,2.5,3.1,2.9 l0.9,0.2c0.5,0.3,0.4,1.3-0.2,1.4c-1.4-0.1-2.7-0.2-4.5-0.2c-2,0-3.5,0.1-4.9,0.2c-0.5-0.2-0.6-1.1-0.1-1.4l1.1-0.2 c1.4-0.2,1.4-0.5,0.7-2.2l-1.3-3.5c-0.4-1.3-0.6-1.3-1.9-1.3H25.6z M29.9,124c1.4,0,1.6-0.1,1-1.7l-1.7-4.6 c-0.4-1.3-0.7-1.7-0.8-2h-0.1c-0.2,0.2-0.4,0.7-0.9,1.9l-2,4.9c-0.6,1.5-0.5,1.6,0.7,1.6H29.9z"></path> <path class="st0" d="M65.4,110.8c0,1.1,0.2,3.8,0.5,6c-0.2,0.4-1,0.5-1.4,0.1c-0.8-3-2.7-5.6-7.6-5.6c-4.7,0-9.3,3.2-9.3,10.6 c0,7.3,4.7,11.4,9.8,11.4s7.2-4.1,7.8-5.5c0.3-0.5,1.1-0.5,1.4,0.1c-0.3,2.4-1.1,4.9-1.8,5.9c-1.6,0.3-3.6,1.1-7.4,1.1 c-3.4,0-6.8-0.6-9.6-2.5c-2.9-2-5.2-5.3-5.2-9.7c0-4.4,1.9-7.7,4.6-9.8c2.7-2.1,6.4-3.2,10.6-3.2C61.5,109.8,65,110.8,65.4,110.8z "></path> <path class="st0" d="M89.4,121c1.7,0,2,0,2-1.4v-3.3c0-3.8-0.2-4-2.6-4.4l-1-0.2c-0.4-0.3-0.3-1.2,0.1-1.4 c2.1,0.1,3.8,0.2,5.6,0.2c1.7,0,3.4-0.1,5.6-0.2c0.4,0.2,0.5,1.1,0.1,1.4l-1,0.2c-2.3,0.4-2.6,0.6-2.6,4.4v12.2 c0,3.8,0.2,4,2.6,4.4l1.3,0.2c0.4,0.3,0.3,1.2-0.1,1.4c-2.3-0.1-4.1-0.2-5.8-0.2c-1.7,0-3.4,0.1-5.6,0.2c-0.4-0.2-0.5-1.1-0.1-1.4 l1-0.2c2.3-0.4,2.6-0.6,2.6-4.4v-4.3c0-1.4-0.1-1.4-2-1.4h-9.6c-1.9,0-2,0.1-2,1.4v4.3c0,3.8,0.2,4.1,2.6,4.4l1.5,0.2 c0.4,0.3,0.3,1.2-0.1,1.4c-2.5-0.1-4.3-0.2-6-0.2c-1.7,0-3.4,0.1-5.1,0.2c-0.4-0.2-0.5-1.1-0.1-1.4l0.6-0.2 c2.3-0.6,2.6-0.6,2.6-4.4v-12.2c0-3.8-0.2-4-2.6-4.4l-1.3-0.2c-0.4-0.3-0.3-1.2,0.1-1.4c2.3,0.1,4,0.2,5.8,0.2 c1.7,0,3.4-0.1,5.3-0.2c0.4,0.2,0.5,1.1,0.1,1.4l-0.8,0.2c-2.3,0.4-2.6,0.6-2.6,4.4v3.3c0,1.4,0.2,1.4,2,1.4H89.4z"></path> <path class="st0" d="M125.9,110.8c0,1.1,0.2,3.8,0.5,6c-0.2,0.4-1,0.5-1.4,0.1c-0.8-3-2.7-5.6-7.6-5.6c-4.7,0-9.3,3.2-9.3,10.6 c0,7.3,4.7,11.4,9.8,11.4s7.2-4.1,7.8-5.5c0.3-0.5,1.1-0.5,1.4,0.1c-0.3,2.4-1.1,4.9-1.8,5.9c-1.6,0.3-3.6,1.1-7.4,1.1 c-3.4,0-6.8-0.6-9.6-2.5c-2.9-2-5.2-5.3-5.2-9.7c0-4.4,1.9-7.7,4.6-9.8c2.7-2.1,6.4-3.2,10.6-3.2 C122,109.8,125.5,110.8,125.9,110.8z"></path> </g> </g> <path class="st0" d="M136,130.3c2.7,0,4.7,1.6,4.7,4.6c0,2.9-2.1,4.6-4.7,4.6s-4.7-1.6-4.7-4.6C131.3,131.9,133.3,130.3,136,130.3z M136,139c2.6,0,4.3-1.5,4.3-4.2c0-2.7-1.7-4.2-4.3-4.2s-4.3,1.5-4.3,4.2C131.7,137.5,133.4,139,136,139z M134.6,137.6h-0.4v-5.4 h2.1c1.2,0,1.6,0.8,1.6,1.5c0,0.8-0.4,1.3-1,1.5l1.2,2.4h-0.5l-1.1-2.3h-1.8V137.6z M134.6,134.8h1.8c0.8,0,1-0.4,1-1.1 c0-0.5-0.1-1.1-1-1.1h-1.8V134.8z"></path> </svg> 