<?xml version="1.0" encoding="utf-8"?>
<!-- Generator: Adobe Illustrator 23.0.1, SVG Export Plug-In . SVG Version: 6.00 Build 0)  -->
<svg version="1.1" id="Layer_1" xmlns="http://www.w3.org/2000/svg" xmlns:xlink="http://www.w3.org/1999/xlink" x="0px" y="0px"
	 viewBox="0 0 719.61 556" width="1000" style="enable-background:new 0 0 719.61 556;" xml:space="preserve">
<style type="text/css">
	.st0{fill:#509641;}
	.st1{fill:#F6921E;}
	.st2{fill:#FFFFFF;stroke:#FFFFFF;stroke-miterlimit:10;}
	.st3{font-family:'Helvetica-Bold';}
	.st4{font-size:136.4859px;}
	.st5{letter-spacing:3;}
	.st6{font-family:'Helvetica';}
	.st7{font-size:51.1748px;}
	.st8{letter-spacing:-2;}
	.st9{letter-spacing:-1;}
</style>
<g>
	<path class="st0" d="M364,202.57h19.28c-0.88-10.68-8.9-19.33-19.28-21.17V202.57z"/>
	<path class="st0" d="M356.75,202.57v-21.33c-10.86,1.44-19.37,10.31-20.29,21.33H356.75z"/>
	<path class="st0" d="M356.75,209.82h-20.37c0,12.32,0,40.62,0,40.62h20.37V209.82z"/>
	<path class="st0" d="M364,209.82v40.62h19.36c0,0,0-28.3,0-40.62H364z"/>
</g>
<path class="st0" d="M1.16,396.67c-0.97,0.39-1.64-0.99-0.73-1.51c34.75-20.03,162.45-84.84,359.74-84.84
	c197.09,0,324.26,64.21,359.01,84.16c0.91,0.52,0.24,1.9-0.73,1.51c-38.96-15.65-183.1-68.34-357.94-68.34
	C185.44,327.65,40.19,380.95,1.16,396.67z"/>
<path class="st1" d="M360.91,41.31l41.89,44.13l-0.18-12.88l82.22-0.25l-0.34,94.01l62.13,62.72c2.53-12.39,3.86-25.21,3.86-38.34
	C550.49,85.5,465.2,0.21,360,0.21S169.51,85.5,169.51,190.7c0,13.45,1.4,26.58,4.06,39.25L360.91,41.31z"/>
<path class="st0" d="M82.01,343.17c26.29-9.68,55-18.19,93.03-26.49c0.36-0.08,0.69-0.26,0.95-0.51l183.14-181.49
	c0.75-0.75,1.97-0.75,2.72,0.01l182.08,182.17c0.26,0.26,0.59,0.44,0.95,0.52c37.06,8.24,65.76,16.55,91.52,26
	c1.94,0.71,3.5-1.7,2.04-3.17L472.05,171.9c-0.36-0.36-0.56-0.85-0.56-1.36V87.28c0-1.07-0.87-1.94-1.94-1.93l-54.37,0.35
	c-1.07,0.01-1.93,0.88-1.92,1.95l0.19,20.78c0.02,1.75-2.13,2.62-3.33,1.34l-48.25-50.99c-0.75-0.79-2-0.81-2.77-0.03L79.97,340
	C78.52,341.47,80.07,343.89,82.01,343.17z"/>
<g>
	<text transform="matrix(1 0 0 1 64.746 495.2753)" class="st2 st3 st4 st5">SUNSET</text>
	<text transform="matrix(1 0 0 1 64.746 495.2753)" class="st2 st3 st4 st5">SUNSET</text>
</g>
<g>
	<text transform="matrix(1 0 0 1 64.7457 546.1943)"><tspan x="0" y="0" class="st2 st6 st7">Home Health Services, Inc</tspan><tspan x="455.05" y="0" class="st2 st6 st7 st8"></tspan><tspan x="478.59" y="0" class="st2 st6 st7"></tspan><tspan x="549.71" y="0" class="st2 st6 st7 st9"></tspan></text>
</g>
</svg>
