<svg xmlns="http://www.w3.org/2000/svg" width="1082" height="256.26" viewBox="0 0 1082 256.26">
  <defs>
    <style>
      .cls-1 {
        fill: #0a3b5c;
      }
    </style>
  </defs>
  <title>Wellcare-logo-BLUE</title>
  <g id="Layer_2" data-name="Layer 2">
    <g id="Layer_1-2" data-name="Layer 1">
      <g>
        <path class="cls-1" d="M1.21,1.61C58.06,3.9,127.23-9.46,158.8,41.89c3.3,5.38,12.62,23.24,17.94,34.84,17.44,38,32.15,79.78,70.26,104.7-39.65,4.39-89.21,5.5-121.72-21.49C72,113.11,82.38,19.39,1.54,2.39-.31,2-.58,1.54,1.21,1.61"/>
        <path class="cls-1" d="M283.89,57c21.48,42.41,32.49,89.75,73.79,124.46-38,4.39-85.92,5.5-116.2-21.49C195.23,112,193,40.45,135.75,1.35,195.23-3.61,254.16,3,283.89,57"/>
        <path class="cls-1" d="M520.9,53.32c-6.73.58-10.95,5.18-13.25,12.27L469.28,181.11h-5.2l-32.23-89.8h-1.34l-34.92,89.8h-5.37L349.54,65.59c-3.26-9.21-5.18-11.12-13.24-12.27v-4.8h56.41v4.8c-6.9.58-12.28,1-12.28,8a18.5,18.5,0,0,0,1.35,6.34L404.6,137h.4l22.44-58.53L420.73,60c-2.5-4.24-4.6-6.34-13.82-6.72v-4.8h59.87v4.8c-8.24.58-13.82.77-13.82,7.29,0,2.29,1.53,6.9,2.69,10.55l20.52,63.9h.38l21.32-65.23a24.16,24.16,0,0,0,1.34-8.08c0-7.85-6.72-8-13.25-8.43v-4.8H520.9Z"/>
        <path class="cls-1" d="M578.71,156.92c-11.72,17.86-22.64,24-38,24-19.39,0-39-14.19-39-47,0-28.4,17.46-46.43,39.53-46.43,33.38,0,35.87,33.4,36.45,43.75H529.39c.58,16.3,4.8,35.88,23,35.88,11.31,0,18-8.44,21.68-12.84Zm-24.56-32.8c-.2-6-.2-15.93-1.73-21.68-1.15-4.23-3.64-9-10.36-9-7.1,0-13.63,4.21-13.63,30.69Z"/>
        <path class="cls-1" d="M628.2,178.22H582.35v-4.6c7.67,0,9.78-6.91,9.78-11.5V64.25c0-2.11-.37-11.14-9.78-11.14V48.52h36.46v113.6c0,5.55,1.92,11.5,9.39,11.5Z"/>
        <path class="cls-1" d="M681.55,178.22H635.69v-4.6c7.67,0,9.79-6.91,9.79-11.5V64.25c0-2.11-.39-11.14-9.79-11.14V48.52h36.45v113.6c0,5.55,1.92,11.5,9.41,11.5Z"/>
        <path class="cls-1" d="M810.6,153.86c-14,15.93-29,28-53.53,28-44.73,0-68.93-31.47-68.93-67.36,0-39,27.66-68.89,68-68.89,17.26,0,32,9.42,37,9.42,5.17,0,6.9-4,8.82-8.84h5.19V91.12h-4.81C795.63,74.42,779.54,52,757.65,52c-28,0-35.51,29.37-35.51,61.79,0,11.51,1.16,29.94,8.26,42.21,8.07,13.82,23.22,16.69,29.16,16.69,15,0,29.37-5.76,45.29-23.61Z"/>
        <path class="cls-1" d="M902.31,170c-5.37,6.32-12.47,10.93-21.11,10.93-13.44,0-15-8-16.1-13.42-12.5,12.46-25.91,13.42-30.52,13.42-9.2,0-21.1-5.95-21.1-20.52,0-20,24.35-27.64,51.62-35.89v-14c0-9.79-2.7-16.87-16.9-16.87-6.91,0-11.32,3.83-11.32,6.9,0,4,5.75,5.56,5.75,13,0,3.45-2.87,10.74-12.86,10.74-2.3,0-12.66,0-12.66-13,0-12.1,12.08-23.8,35.89-23.8,21.29,0,38.38,8.25,38.38,26.29v50.08c0,1.15,0,4.79,4.21,4.79a2.44,2.44,0,0,0,1.93-.77l1.9-1.91ZM864.9,131.22c-4.42,1-23.42,6.52-23.42,23.22,0,5.95,2.89,12.85,9.8,12.85,6.52,0,10.92-5.17,13.62-8.25Z"/>
        <path class="cls-1" d="M958.34,178.22h-51v-4.6c6.14-1.14,10.36-1.92,10.36-11.5V105.7c0-9.59-4.61-10.55-10.36-11.33v-4.6h36.27v15.16H944c4-5.94,12.67-17.46,25.14-17.46,13,0,15.92,10.36,15.92,15,0,5-2.69,12.85-12.29,12.85-11.13,0-10.92-11.31-17.06-11.31-2.88,0-11.33,4.21-11.33,18.22v36.26c0,11.7,2.3,14.59,14,15.16Z"/>
        <path class="cls-1" d="M1062.37,156.92c-11.71,17.86-22.65,24-38,24-19.39,0-38.95-14.19-38.95-47,0-28.4,17.47-46.43,39.52-46.43,33.4,0,35.88,33.4,36.47,43.75h-48.36c.57,16.3,4.79,35.88,23,35.88,11.33,0,18-8.44,21.69-12.84Zm-24.57-32.8c-.19-6-.19-15.93-1.73-21.68-1.15-4.23-3.63-9-10.36-9-7.1,0-13.62,4.21-13.62,30.69Z"/>
        <path class="cls-1" d="M1070.9,73.27a11.42,11.42,0,0,1,5.46,1.43,10.2,10.2,0,0,1,4.15,4.11,11.17,11.17,0,0,1,0,11.11,10.29,10.29,0,0,1-4.1,4.12,11.2,11.2,0,0,1-11.06,0,10.38,10.38,0,0,1-4.11-4.12,11.17,11.17,0,0,1,0-11.11,10.29,10.29,0,0,1,4.16-4.11,11.45,11.45,0,0,1,5.46-1.43m0,1.83a9.41,9.41,0,0,0-4.55,1.2,8.64,8.64,0,0,0-3.47,3.44,9.2,9.2,0,0,0,0,9.26,8.7,8.7,0,0,0,3.43,3.43,9.25,9.25,0,0,0,9.22,0,8.64,8.64,0,0,0,3.43-3.43,9.26,9.26,0,0,0,0-9.26,8.64,8.64,0,0,0-3.47-3.44,9.47,9.47,0,0,0-4.55-1.2M1066,90.53v-12h4.12a9.8,9.8,0,0,1,3,.33,2.88,2.88,0,0,1,1.5,1.16,3.06,3.06,0,0,1,.56,1.75,3.2,3.2,0,0,1-.93,2.28,3.76,3.76,0,0,1-2.5,1.09,3.36,3.36,0,0,1,1,.64,14.39,14.39,0,0,1,1.76,2.37l1.45,2.34h-2.35l-1.06-1.89a10.27,10.27,0,0,0-2-2.78,2.53,2.53,0,0,0-1.55-.42H1068v5.09Zm1.93-6.74h2.35a3.81,3.81,0,0,0,2.29-.5,1.72,1.72,0,0,0,.32-2.27,1.72,1.72,0,0,0-.82-.62,6,6,0,0,0-1.94-.21H1068Z"/>
        <polygon class="cls-1" points="748.26 228.69 722.18 228.69 722.18 207.56 716.51 207.56 716.51 255.1 722.18 255.1 722.18 233.69 748.26 233.69 748.26 255.1 753.93 255.1 753.93 207.56 748.26 207.56 748.26 228.69"/>
        <path class="cls-1" d="M776.13,220.41c-8.08,0-16.43,6.64-16.43,17.75,0,10.08,7.69,17.68,17.9,17.68a18.3,18.3,0,0,0,9.8-2.33l.15-.09.72-5.63-.69.47a16.74,16.74,0,0,1-9.47,2.72,13,13,0,0,1-9.46-3.83,11.82,11.82,0,0,1-3.37-8.17h22.23l3-2.9,0-.11a11.14,11.14,0,0,0,.16-2.36c0-8.57-7.48-13.2-14.53-13.2m-10.48,14c1-5.12,5.73-9.22,10.7-9.22a8.5,8.5,0,0,1,8.87,8.49c0,.23,0,.5,0,.73Z"/>
        <path class="cls-1" d="M819.77,247V231.85c0-6.95-5-11.44-12.7-11.44a18,18,0,0,0-10.18,2.7l-.22.15,1.15,4.66.45-.31a16.17,16.17,0,0,1,8.58-2.42c4.75,0,7.47,2.27,7.47,6.22v2.82l-8.38.77c-5.13.46-11.12,3.55-11.12,10.71,0,5.87,4.63,10.13,11,10.13,4.22,0,7.74-1.89,9.32-4.93a7.12,7.12,0,0,0,5.27,4.93l.21,0,3.66-3.67-.72-.12c-1.83-.32-3.79-1.81-3.79-5.06m-13.58,4.1c-3.56,0-6.15-2.27-6.15-5.42,0-3.49,2.5-5.73,6.85-6.15l7.43-.69v4a8.09,8.09,0,0,1-8.13,8.21"/>
        <path class="cls-1" d="M834,247V202.15h-5.38v45.33c0,5.94,3.76,8,6,8.71l.22.07,3.79-3.8-.67-.15a5.23,5.23,0,0,1-4-5.35"/>
        <path class="cls-1" d="M852.47,211.28l-5.29,2.82v7h-6.61v4.58h6.61v20.52c0,5.57,3.71,9.17,9.47,9.17a7.8,7.8,0,0,0,3.85-.71l.16-.09.63-4.71-.64.32a7.17,7.17,0,0,1-3.2.63c-3.35,0-5-1.63-5-5V225.71h11.22l1-4.58H852.47Z"/>
        <path class="cls-1" d="M885.25,220.41c-4.69,0-8.38,1.56-10.19,4.22V202.15H869.7v53h5.36v-22.3c0-4.56,3.65-7.62,9.09-7.62s8.79,3,8.79,7.62v22.3h5.37V232.37c0-7.15-5.25-12-13.06-12"/>
        <path class="cls-1" d="M938.42,207.57h-14v47.54h5.67V233.7h8.5c9.15,0,13.94-6.58,13.94-13.07s-4.84-13.06-14.09-13.06m-8.35,5.08h7.54c4.55,0,9.16,2.77,9.16,8.06,0,5.53-4.67,8-9,8h-7.69Z"/>
        <path class="cls-1" d="M964.55,247V202.15h-5.38v45.33c0,5.94,3.74,8,6,8.71l.22.07,3.8-3.8-.67-.15a5.22,5.22,0,0,1-4-5.35"/>
        <path class="cls-1" d="M997,247V231.85c0-6.95-5-11.44-12.7-11.44a18,18,0,0,0-10.19,2.7l-.21.15,1.15,4.67.45-.32a16.11,16.11,0,0,1,8.57-2.42c4.76,0,7.48,2.27,7.48,6.22v2.82l-8.39.77c-5.13.46-11.12,3.55-11.12,10.71,0,5.87,4.63,10.13,11,10.13,4.21,0,7.72-1.89,9.31-4.93a7.1,7.1,0,0,0,5.27,4.93l.2,0,3.67-3.67-.72-.12C999,251.77,997,250.28,997,247m-13.58,4.1c-3.56,0-6.15-2.27-6.15-5.42,0-3.49,2.49-5.73,6.84-6.15l7.44-.69v4a8.09,8.09,0,0,1-8.13,8.21"/>
        <path class="cls-1" d="M1021.29,220.41c-6.43,0-9.26,2.62-10.48,4.6v-3.88h-5.07v34h5.37v-22.3c0-4.56,3.65-7.62,9.08-7.62s8.79,3,8.79,7.62v22.3h5.37V232.37c0-7.15-5.25-12-13.06-12"/>
        <path class="cls-1" d="M1052.52,235c-3.5-1.26-5.4-2.47-5.4-5.22,0-2.55,2.11-4.32,5.13-4.32a11.4,11.4,0,0,1,6.89,2.13l.44.33,1.24-4.75-.22-.15a15.75,15.75,0,0,0-8.28-2.21c-6.18,0-10.5,3.75-10.5,9.11,0,4.89,2.91,8,9.71,10.4,4,1.43,5.84,3.2,5.84,5.75,0,2.83-2.47,4.74-6.15,4.74a15,15,0,0,1-9.66-3.65l-.74-.63.8,6.19.14.09a15.56,15.56,0,0,0,9.39,2.72c6.93,0,11.59-3.84,11.59-9.55,0-5.17-3-8.46-10.22-11"/>
      </g>
    </g>
  </g>
</svg>
